<?xml version="1.0" standalone="no"?>
<!DOCTYPE svg PUBLIC "-//W3C//DTD SVG 20010904//EN"
 "http://www.w3.org/TR/2001/REC-SVG-20010904/DTD/svg10.dtd">
<svg version="1.0" xmlns="http://www.w3.org/2000/svg"
 width="327.000000pt" height="327.000000pt" viewBox="0 0 327.000000 327.000000"
 preserveAspectRatio="xMidYMid meet">
<metadata>
Created by potrace 1.11, written by Peter Selinger 2001-2013
</metadata>
<g transform="translate(0.000000,327.000000) scale(0.100000,-0.100000)"
fill="#000000" stroke="none">
<path d="M1430 3070 l0 -50 -105 0 -105 0 0 -50 0 -50 -100 0 -100 0 0 -55 0
-55 -55 0 -55 0 0 -50 0 -50 -50 0 -50 0 0 -55 0 -55 -55 0 -55 0 0 -50 0 -50
-50 0 -50 0 0 -50 0 -50 -55 0 -55 0 0 -105 0 -105 -50 0 -50 0 0 -105 0 -105
-50 0 -50 0 0 -155 0 -155 -55 0 -55 0 0 -260 0 -260 55 0 55 0 0 -160 0 -160
50 0 50 0 0 -105 0 -105 50 0 50 0 0 -50 0 -50 55 0 55 0 0 -50 0 -50 50 0 50
0 0 -55 0 -55 55 0 55 0 0 -50 0 -50 105 0 105 0 0 -55 0 -55 100 0 100 0 0
-50 0 -50 420 0 420 0 0 50 0 50 105 0 105 0 0 55 0 55 100 0 100 0 0 50 0 50
55 0 55 0 0 55 0 55 50 0 50 0 0 50 0 50 55 0 55 0 0 50 0 50 50 0 50 0 0 105
0 105 50 0 50 0 0 160 0 160 55 0 55 0 0 260 0 260 -55 0 -55 0 0 155 0 155
-50 0 -50 0 0 105 0 105 -50 0 -50 0 0 105 0 105 -55 0 -55 0 0 50 0 50 -50 0
-50 0 0 50 0 50 -55 0 -55 0 0 55 0 55 -50 0 -50 0 0 50 0 50 -50 0 -50 0 0
55 0 55 -105 0 -105 0 0 50 0 50 -105 0 -105 0 0 50 0 50 -210 0 -210 0 0 -50z"/>
</g>
</svg>
